<svg xmlns="http://www.w3.org/2000/svg" width="485.47" height="467.79" viewBox="0 0 485.47 467.79"><defs><style>.cls-1{fill:#d99999;}</style></defs><title>Asset 1</title><g id="Layer_2" data-name="Layer 2"><g id="Layer_2-2" data-name="Layer 2"><path class="cls-1" d="M485.47,222.09c-.76,51.3-8.77,96.89-26.11,140.82-9.52,24.15-24.71,43.34-45.43,58.84-29.78,22.27-62.69,36.88-99.31,43.1-22.09,3.76-44.3,3.61-66.5,1.26C234.54,464.68,221,463,207.49,461a174.19,174.19,0,0,1-52.87-17.41c-8.81-4.49-18.12-8-26.84-12.69-37.81-20.19-70.05-47-95-82.06-17.28-24.29-27.37-51.41-31.1-81C-3.26,228.83,3,191.32,17.16,155,31.89,117.23,53.25,83.78,83,56,114.4,26.59,151.67,9.32,194.1,2.9c34.43-5.21,68.58-3.07,102.57,3.77A404.47,404.47,0,0,1,376.7,32c45.21,19.43,75.57,52.83,92.88,98.52a234,234,0,0,1,14.13,63.64C484.61,204.85,485.07,215.59,485.47,222.09Z"/></g></g></svg>
